<?xml version="1.0" encoding="iso-8859-1"?>
<!-- Generator: Adobe Illustrator 16.0.0, SVG Export Plug-In . SVG Version: 6.00 Build 0)  -->
<!DOCTYPE svg PUBLIC "-//W3C//DTD SVG 1.1//EN" "http://www.w3.org/Graphics/SVG/1.1/DTD/svg11.dtd">
<svg xmlns="http://www.w3.org/2000/svg" xmlns:xlink="http://www.w3.org/1999/xlink" version="1.1" id="Capa_1" x="0px" y="0px" width="512px" height="512px" viewBox="0 0 449.172 449.172" style="enable-background:new 0 0 449.172 449.172;" xml:space="preserve">
<g>
	<g>
		<path d="M429.926,88.908H19.246C8.617,88.908,0,97.525,0,108.154v232.864c0,10.629,8.617,19.246,19.246,19.246h410.68    c10.629,0,19.246-8.617,19.246-19.246V108.154C449.172,97.525,440.555,88.908,429.926,88.908z M417.415,328.508H31.757V120.665    h385.658V328.508L417.415,328.508z" fill="#FFFFFF"/>
		<path d="M290.441,272.604c0.554,0.85,1.498,1.361,2.514,1.361h21.525c1.246,0,2.363-0.771,2.806-1.936    c2.646-6.979,4.343-11.426,4.903-12.862c1.429,0,8.04,0.008,15.128,0.019h0.4c8.146,0.01,16.8,0.021,18.871,0.021l0,0    c0.611,2.615,2.126,9.541,2.751,12.396c0.301,1.379,1.521,2.36,2.931,2.36h18.771c0.909,0,1.77-0.412,2.339-1.121    c0.568-0.709,0.785-1.638,0.591-2.524l-20.414-92.478c-0.304-1.375-1.521-2.354-2.93-2.354H342.29    c-7.334,0-11.542,2.445-14.069,8.174l-38.011,86.091C289.8,270.682,289.888,271.753,290.441,272.604z M344.2,202.051l1.815,8.512    L352.232,239H329.92h-0.002L344.2,202.051z" fill="#FFFFFF"/>
		<path d="M217.378,269.439c7.083,2.484,16.974,4.029,26.456,4.131c0.011,0,0.021,0,0.032,0    c27.188-0.006,44.881-12.748,45.075-32.463c0.104-10.84-6.811-19.038-21.678-25.764c-9.101-4.421-14.676-7.357-14.623-11.853    c0-4.042,5.098-8.133,14.893-8.134c0.236-0.004,0.516-0.006,0.79-0.006c8.134,0,13.879,1.844,17.492,3.231    c0.84,0.322,1.778,0.251,2.561-0.194c0.782-0.445,1.321-1.217,1.473-2.104l2.428-14.277c0.25-1.473-0.621-2.905-2.044-3.36    c-4.464-1.428-11.682-3.13-20.723-3.13c-25.626,0-43.623,12.892-43.766,31.339c-0.162,13.66,12.867,21.281,22.688,25.826    c10.073,4.646,13.457,7.619,13.411,11.781c-0.071,6.372-8.075,9.273-15.483,9.273c-10.543,0-16.225-1.59-24.263-4.933    c-0.842-0.351-1.8-0.298-2.6,0.144c-0.799,0.439-1.354,1.221-1.509,2.121l-2.573,15.033    C215.167,267.544,215.997,268.955,217.378,269.439z" fill="#FFFFFF"/>
		<path d="M67.114,181.03c17.185,6.185,31.242,15.999,40.652,28.382c0.582,0.766,1.475,1.185,2.39,1.185    c0.421,0,0.846-0.088,1.247-0.271c1.276-0.584,1.978-1.976,1.688-3.349l-5.001-23.645c-0.011-0.051-0.023-0.101-0.036-0.151    c-1.798-6.753-7.491-7.757-11.617-7.924c-0.039-0.001-0.078-0.002-0.117-0.002l-28.185-0.046c-0.002,0-0.003,0-0.005,0    c-1.457,0-2.703,1.047-2.955,2.482C64.923,179.126,65.741,180.536,67.114,181.03z" fill="#FFFFFF"/>
		<path d="M171.154,272.859c0.57,0.676,1.409,1.065,2.293,1.065h20.766c1.462,0,2.712-1.054,2.957-2.496l15.78-92.537    c0.149-0.871-0.094-1.764-0.664-2.439c-0.57-0.675-1.408-1.065-2.292-1.065h-20.781c-1.463,0-2.712,1.055-2.957,2.496    l-15.766,92.537C170.342,271.292,170.585,272.186,171.154,272.859z" fill="#FFFFFF"/>
		<path d="M88.185,196.697c-1.031-0.792-2.452-0.83-3.522-0.097c-1.071,0.733-1.55,2.072-1.185,3.318l21.008,71.777    c0.374,1.279,1.547,2.158,2.879,2.158c0.001,0,0.003,0,0.003,0l24.193-0.035c1.197,0,2.279-0.715,2.752-1.814l39.711-92.351    c0.398-0.927,0.305-1.993-0.251-2.835c-0.555-0.843-1.496-1.35-2.505-1.35h-0.002l-21.845,0.011c-1.233,0-2.342,0.757-2.792,1.906    l-25.557,65.288l-2.749-9.95c-0.036-0.132-0.082-0.262-0.137-0.388C114.152,222.972,103.311,208.321,88.185,196.697z" fill="#FFFFFF"/>
	</g>
</g>
<g>
</g>
<g>
</g>
<g>
</g>
<g>
</g>
<g>
</g>
<g>
</g>
<g>
</g>
<g>
</g>
<g>
</g>
<g>
</g>
<g>
</g>
<g>
</g>
<g>
</g>
<g>
</g>
<g>
</g>
</svg>
